<?xml version="1.0" encoding="UTF-8" standalone="no"?>
<svg
   width="344.58792"
   height="134.67381"
   viewBox="0 0 91.172221 35.632446"
   version="1.1"
   id="logo"
   xml:space="preserve"
   xmlns="http://www.w3.org/2000/svg"
   fill="#ffffff"
   xmlns:svg="http://www.w3.org/2000/svg">
  <path
   id="ship"
   d="m 30.582628,5.5e-5 v 9.547738 c -0.5492,-0.07071 -1.109049,-0.107475 -1.677417,-0.107487 -1.211955,-8.73e-4 -2.7873,0.117324 -4.474145,0.404626 V 5.093284 h -0.529167 v 4.84725 c -0.08802,0.01668 -0.176132,0.03353 -0.264583,0.05116 v -4.89841 h -0.529167 v 5.009514 c -1.985791,0.435917 -4.036347,1.11423 -5.777942,2.123901 -2.473298,1.339891 -8.459481,7.035248 -15.158248,7.598498 0,-0.0434 -0.0062,0.68627 -0.0062,0.68627 L 0.03514,20.536767 0,21.080407 l 4.488098,-0.047 v 0.98857 l -4.30103,0.0465 v 0.58498 l 15.668811,-0.21033 c -0.0013,0.0312 -0.0025,0.0624 -0.0036,0.0935 0.0014,0.36676 0.01809,0.73329 0.05013,1.09864 v 0.30437 l -15.621785,-0.0703 v 2.31511 c 0,0 10.204714,1.15064 21.131526,7.0683 2.194694,1.5468 4.811037,2.37771 7.493083,2.3797 1.588014,-3e-5 3.109382,-0.2851 4.517037,-0.80615 1.068884,-0.21892 3.256947,-1.8285 5.309284,-3.01935 2.305685,-1.25522 5.627322,-2.8113 9.393134,-3.27331 l 34.052231,-0.49764 1.05781,-1.59858 6.37702,-0.23386 1.56048,-2.52336 c -17.60978,-0.0393 -36.144606,0.60184 -53.423091,0.56224 -0.795494,4.193 -4.46835,7.36287 -8.879045,7.36285 -4.991886,2e-5 -9.038658,-4.06017 -9.038725,-9.06869 -2.23e-4,-5.008737 4.046634,-9.069241 9.038725,-9.069217 3.898348,-1.8e-5 8.717197,3.598733 8.863065,7.162487 18.534755,-0.0623 37.453801,-0.54773 53.439071,-0.56693 l -1.35599,-1.575171 -6.80345,-0.02562 -2.91317,-1.630948 -10.821656,0.168285 -2.666585,-1.918229 c 0,0 -25.462821,-0.04069 -25.330529,-0.10684 C 39.528934,13.731119 36.226327,10.606937 32.926693,10.074325 32.592038,9.96568 32.251443,9.870203 31.905567,9.788554 V 4e-6 H 31.3764 V 9.6759 C 31.28842,9.65898 31.200413,9.64246 31.111817,9.62732 V 0 Z" />
  <path
   id="ring"
   d="m 28.995128,15.446601 a 7.3739743,7.3739743 0 0 0 -7.37371,7.373706 7.3739743,7.3739743 0 0 0 7.37371,7.37371 7.3739743,7.3739743 0 0 0 7.37371,-7.37371 7.3739743,7.3739743 0 0 0 -2.89233,-5.850801 3.9595345,7.3739743 31 0 0 -0.543119,-0.469739 3.9595345,7.3739743 31 0 0 -0.576709,-0.237195 7.3739743,7.3739743 0 0 0 -3.361552,-0.815971 z m 0,0.978235 a 6.3955384,6.3955384 0 0 1 1.161686,0.110071 3.9595345,7.3739743 31 0 0 -4.415234,4.24625 3.9595345,7.3739743 31 0 0 -1.650028,6.13658 6.3955384,6.3955384 0 0 1 -1.491899,-4.09743 6.3955384,6.3955384 0 0 1 6.395475,-6.395471 z m 2.471684,0.637171 a 3.4341528,6.3955384 31 0 1 0.42478,0.06201 6.3955384,6.3955384 0 0 1 1.031462,0.649573 6.3955384,6.3955384 0 0 1 0.0016,0.001 3.4341528,6.3955384 31 0 1 -0.845426,6.814572 3.4341528,6.3955384 31 0 1 -6.237862,3.71295 3.4341528,6.3955384 31 0 1 0.350366,-7.25072 3.4341528,6.3955384 31 0 1 5.27513,-3.98942 z m 2.75177,2.077392 a 6.3955384,6.3955384 0 0 1 1.172022,3.680908 6.3955384,6.3955384 0 0 1 -6.395476,6.39548 6.3955384,6.3955384 0 0 1 -0.959631,-0.076 3.9595345,7.3739743 31 0 0 4.493782,-4.28036 3.9595345,7.3739743 31 0 0 1.689303,-5.720068 z" />
</svg>
